<svg width="721" height="96" viewBox="0 0 721 96" fill="transparent" xmlns="http://www.w3.org/2000/svg">
<path d="M12.96 28.04C12.8 30.344 12.064 32.168 10.752 33.512C9.44 34.824 7.824 35.48 5.904 35.48C3.984 35.48 2.176 35.32 0.48 35V28.52H2.64C3.248 28.52 3.744 28.312 4.128 27.896C4.544 27.48 4.768 26.968 4.8 26.36L6.24 1.4H32.88V35H24.24V8.12H14.16L12.96 28.04ZM61.2056 10.52C61.2056 8.6 60.2456 7.64 58.3256 7.64H50.1656C48.2456 7.64 47.2856 8.6 47.2856 10.52V25.88C47.2856 27.8 48.2456 28.76 50.1656 28.76H58.3256C60.2456 28.76 61.2056 27.8 61.2056 25.88V10.52ZM69.8456 25.88C69.8456 29.24 69.0776 31.688 67.5416 33.224C66.0376 34.728 63.6056 35.48 60.2456 35.48H48.2456C44.8856 35.48 42.4376 34.728 40.9016 33.224C39.3976 31.688 38.6456 29.24 38.6456 25.88V10.52C38.6456 7.16 39.3976 4.728 40.9016 3.224C42.4376 1.688 44.8856 0.919998 48.2456 0.919998H60.2456C63.6056 0.919998 66.0376 1.688 67.5416 3.224C69.0776 4.728 69.8456 7.16 69.8456 10.52V25.88ZM113.548 23C113.548 26.36 112.78 28.808 111.244 30.344C109.74 31.848 107.308 32.6 103.948 32.6H98.1881V35.96H89.5481V32.6H83.7881C80.4281 32.6 77.9801 31.848 76.4441 30.344C74.9401 28.808 74.1881 26.36 74.1881 23V13.4C74.1881 10.04 74.9401 7.608 76.4441 6.104C77.9801 4.568 80.4281 3.8 83.7881 3.8H89.5481V0.439999H98.1881V3.8H103.948C107.308 3.8 109.74 4.568 111.244 6.104C112.78 7.608 113.548 10.04 113.548 13.4V23ZM104.908 13.4C104.908 11.48 103.948 10.52 102.028 10.52H97.7081V25.88H102.028C103.948 25.88 104.908 24.92 104.908 23V13.4ZM82.8281 23C82.8281 24.92 83.7881 25.88 85.7081 25.88H90.0281V10.52H85.7081C83.7881 10.52 82.8281 11.48 82.8281 13.4V23ZM134.205 35H125.565V8.12H115.485V1.4H144.285V8.12H134.205V35ZM193.241 35H184.601V8.12H172.601V35H163.961V1.4H193.241V35ZM226.624 35H199.984V1.4H226.624V8.12H208.624V14.6H222.784V21.32H208.624V28.28H226.624V35ZM231.413 1.4H251.573C254.933 1.4 257.365 2.168 258.869 3.704C260.405 5.208 261.173 7.64 261.173 11V15.8C261.173 19.16 260.405 21.608 258.869 23.144C257.365 24.648 254.933 25.4 251.573 25.4H240.053V35H231.413V1.4ZM252.533 11C252.533 9.08 251.573 8.12 249.653 8.12H240.053V18.68H249.653C251.573 18.68 252.533 17.72 252.533 15.8V11ZM293.091 35H266.451V1.4H293.091V8.12H275.091V14.6H289.251V21.32H275.091V28.28H293.091V35ZM306.519 35H297.879V1.4H324.039V8.12H306.519V35ZM349.971 10.52C349.971 8.6 349.011 7.64 347.091 7.64H338.931C337.011 7.64 336.051 8.6 336.051 10.52V25.88C336.051 27.8 337.011 28.76 338.931 28.76H347.091C349.011 28.76 349.971 27.8 349.971 25.88V10.52ZM358.611 25.88C358.611 29.24 357.843 31.688 356.307 33.224C354.803 34.728 352.371 35.48 349.011 35.48H337.011C333.651 35.48 331.203 34.728 329.667 33.224C328.163 31.688 327.411 29.24 327.411 25.88V10.52C327.411 7.16 328.163 4.728 329.667 3.224C331.203 1.688 333.651 0.919998 337.011 0.919998H349.011C352.371 0.919998 354.803 1.688 356.307 3.224C357.843 4.728 358.611 7.16 358.611 10.52V25.88ZM364.393 1.4H384.553C387.913 1.4 390.345 2.168 391.849 3.704C393.385 5.208 394.153 7.64 394.153 11V15.8C394.153 19.16 393.385 21.608 391.849 23.144C390.345 24.648 387.913 25.4 384.553 25.4H373.033V35H364.393V1.4ZM385.513 11C385.513 9.08 384.553 8.12 382.633 8.12H373.033V18.68H382.633C384.553 18.68 385.513 17.72 385.513 15.8V11ZM421.031 10.52C421.031 8.6 420.071 7.64 418.151 7.64H409.991C408.071 7.64 407.111 8.6 407.111 10.52V25.88C407.111 27.8 408.071 28.76 409.991 28.76H418.151C420.071 28.76 421.031 27.8 421.031 25.88V10.52ZM429.671 25.88C429.671 29.24 428.903 31.688 427.367 33.224C425.863 34.728 423.431 35.48 420.071 35.48H408.071C404.711 35.48 402.263 34.728 400.727 33.224C399.223 31.688 398.471 29.24 398.471 25.88V10.52C398.471 7.16 399.223 4.728 400.727 3.224C402.263 1.688 404.711 0.919998 408.071 0.919998H420.071C423.431 0.919998 425.863 1.688 427.367 3.224C428.903 4.728 429.671 7.16 429.671 10.52V25.88ZM439.316 1.4H464.516V28.28H468.116V41.24H459.956L459.476 35H440.756L440.276 41.24H432.116V28.28H435.236C436.164 27.224 436.852 26.04 437.3 24.728C437.78 23.384 438.052 22.168 438.116 21.08L439.316 1.4ZM455.876 28.28V8.12H446.996L446.276 20.12C446.18 22.072 445.7 24.04 444.836 26.024C444.484 26.856 444.084 27.608 443.636 28.28H455.876ZM497.409 0.919998C498.209 0.919998 499.649 1.08 501.729 1.4V7.88H499.809C499.329 7.88 498.897 8.04 498.513 8.36C498.129 8.648 497.841 8.968 497.649 9.32L493.089 17.96L502.449 35H493.329L485.889 21.32H481.569V35H472.929V1.4H481.569V14.6H485.889L490.689 5.48C491.393 4.136 492.257 3.048 493.281 2.216C494.337 1.352 495.713 0.919998 497.409 0.919998ZM535.56 35H526.92V14.36L515.4 35H506.28V1.4H514.92V22.04L526.44 1.4H535.56V35ZM32.16 95H23.52V74.36L12 95H2.88V61.4H11.52V82.04L23.04 61.4H32.16V95ZM83.0531 76.28L76.3331 88.28H69.6131L62.8931 76.28V95H54.2531V61.4H63.3731L72.9731 79.16L82.5731 61.4H91.6931V95H83.0531V76.28ZM125.072 95H98.4319V61.4H125.072V68.12H107.072V74.6H121.232V81.32H107.072V88.28H125.072V95ZM138.501 74.36H150.021C153.381 74.36 155.813 75.128 157.317 76.664C158.853 78.168 159.621 80.6 159.621 83.96V85.4C159.621 88.76 158.853 91.208 157.317 92.744C155.813 94.248 153.381 95 150.021 95H129.861V61.4H156.501V68.12H138.501V74.36ZM150.981 83.96C150.981 82.04 150.021 81.08 148.101 81.08H138.501V88.28H148.101C150.021 88.28 150.981 87.32 150.981 85.4V83.96ZM191.539 95H164.899V61.4H191.539V68.12H173.539V74.6H187.699V81.32H173.539V88.28H191.539V95ZM206.407 88.04C206.247 90.344 205.511 92.168 204.199 93.512C202.887 94.824 201.271 95.48 199.351 95.48C197.431 95.48 195.623 95.32 193.927 95V88.52H196.087C196.695 88.52 197.191 88.312 197.575 87.896C197.991 87.48 198.215 86.968 198.247 86.36L199.687 61.4H226.327V95H217.687V68.12H207.607L206.407 88.04ZM241.693 72.92H253.213C256.573 72.92 259.005 73.688 260.509 75.224C262.045 76.728 262.813 79.16 262.813 82.52V85.4C262.813 88.76 262.045 91.208 260.509 92.744C259.005 94.248 256.573 95 253.213 95H233.053V61.4H241.693V72.92ZM254.173 82.52C254.173 80.6 253.213 79.64 251.293 79.64H241.693V88.28H251.293C253.213 88.28 254.173 87.32 254.173 85.4V82.52ZM283.442 61.4H303.602C306.962 61.4 309.394 62.168 310.898 63.704C312.434 65.208 313.202 67.64 313.202 71V75.8C313.202 79.16 312.434 81.608 310.898 83.144C309.394 84.648 306.962 85.4 303.602 85.4H292.082V95H283.442V61.4ZM304.562 71C304.562 69.08 303.602 68.12 301.682 68.12H292.082V78.68H301.682C303.602 78.68 304.562 77.72 304.562 75.8V71ZM325.607 95.48C324.007 95.48 322.359 95.32 320.663 95V88.52H324.983C325.911 88.52 326.551 88.152 326.903 87.416C327.063 87.096 327.143 86.76 327.143 86.408C327.143 86.024 327.063 85.688 326.903 85.4L313.703 61.4H323.303L331.943 78.44L339.143 61.4H348.743L336.503 87.8C335.383 90.328 334.039 92.216 332.471 93.464C330.743 94.808 328.455 95.48 325.607 95.48ZM371.083 83.96C367.243 84.28 363.611 84.44 360.187 84.44C356.795 84.44 354.363 83.704 352.891 82.232C351.419 80.76 350.683 78.456 350.683 75.32V61.4H359.323V75.32C359.323 76.056 359.531 76.648 359.947 77.096C360.395 77.512 360.987 77.72 361.723 77.72C364.347 77.72 367.467 77.56 371.083 77.24V61.4H379.723V95H371.083V83.96ZM415.727 95H407.087V81.32H395.087V95H386.447V61.4H395.087V74.6H407.087V61.4H415.727V95ZM444.069 70.52C444.069 68.6 443.109 67.64 441.189 67.64H433.029C431.109 67.64 430.149 68.6 430.149 70.52V85.88C430.149 87.8 431.109 88.76 433.029 88.76H441.189C443.109 88.76 444.069 87.8 444.069 85.88V70.52ZM452.709 85.88C452.709 89.24 451.941 91.688 450.405 93.224C448.901 94.728 446.469 95.48 443.109 95.48H431.109C427.749 95.48 425.301 94.728 423.765 93.224C422.261 91.688 421.509 89.24 421.509 85.88V70.52C421.509 67.16 422.261 64.728 423.765 63.224C425.301 61.688 427.749 60.92 431.109 60.92H443.109C446.469 60.92 448.901 61.688 450.405 63.224C451.941 64.728 452.709 67.16 452.709 70.52V85.88ZM479.132 95V74.36L467.612 95H458.492V61.4H467.132V82.04L478.652 61.4H487.772V95H479.132ZM470.492 59C466.332 59 464.252 56.92 464.252 52.76V51.32H470.492V52.52C470.492 53 470.652 53.4 470.972 53.72C471.292 54.04 471.692 54.2 472.172 54.2H473.612C474.092 54.2 474.492 54.04 474.812 53.72C475.132 53.4 475.292 53 475.292 52.52V51.32H481.532V52.76C481.532 56.92 479.452 59 475.292 59H470.492ZM509.865 61.4H530.025C533.385 61.4 535.817 62.168 537.321 63.704C538.857 65.208 539.625 67.64 539.625 71V75.8C539.625 79.16 538.857 81.608 537.321 83.144C535.817 84.648 533.385 85.4 530.025 85.4H518.505V95H509.865V61.4ZM530.985 71C530.985 69.08 530.025 68.12 528.105 68.12H518.505V78.68H528.105C530.025 78.68 530.985 77.72 530.985 75.8V71ZM548.044 95H538.684L551.404 61.4H561.004L573.724 95H564.364L562.204 89H550.204L548.044 95ZM552.364 82.76H560.044L556.204 71.48L552.364 82.76ZM585.722 74.36H597.242C600.602 74.36 603.034 75.128 604.538 76.664C606.074 78.168 606.842 80.6 606.842 83.96V85.4C606.842 88.76 606.074 91.208 604.538 92.744C603.034 94.248 600.602 95 597.242 95H577.082V61.4H603.722V68.12H585.722V74.36ZM598.202 83.96C598.202 82.04 597.242 81.08 595.322 81.08H585.722V88.28H595.322C597.242 88.28 598.202 87.32 598.202 85.4V83.96ZM633.72 70.52C633.72 68.6 632.76 67.64 630.84 67.64H622.68C620.76 67.64 619.8 68.6 619.8 70.52V85.88C619.8 87.8 620.76 88.76 622.68 88.76H630.84C632.76 88.76 633.72 87.8 633.72 85.88V70.52ZM642.36 85.88C642.36 89.24 641.592 91.688 640.056 93.224C638.552 94.728 636.12 95.48 632.76 95.48H620.76C617.4 95.48 614.952 94.728 613.416 93.224C611.912 91.688 611.16 89.24 611.16 85.88V70.52C611.16 67.16 611.912 64.728 613.416 63.224C614.952 61.688 617.4 60.92 620.76 60.92H632.76C636.12 60.92 638.552 61.688 640.056 63.224C641.592 64.728 642.36 67.16 642.36 70.52V85.88ZM664.463 95H655.823V68.12H645.743V61.4H674.543V68.12H664.463V95ZM687.508 72.92H698.548C701.908 72.92 704.34 73.688 705.844 75.224C707.38 76.728 708.148 79.16 708.148 82.52V85.4C708.148 88.76 707.38 91.208 705.844 92.744C704.34 94.248 701.908 95 698.548 95H678.868V61.4H687.508V72.92ZM720.628 95H711.988V61.4H720.628V95ZM699.508 82.52C699.508 80.6 698.548 79.64 696.628 79.64H687.508V88.28H696.628C698.548 88.28 699.508 87.32 699.508 85.4V82.52Z" fill="none" stroke="#ffffff" stroke-width="2"/>
</svg>
