<svg width="34" height="21" fill="none" xmlns="http://www.w3.org/2000/svg"><path d="M33.984 3.2L33.435.877a.584.584 0 00-.194-.316.529.529 0 00-.338-.124H1.097a.53.53 0 00-.338.124.585.585 0 00-.194.316L.016 3.2a.614.614 0 00.1.498c.051.07.117.126.192.165a.524.524 0 00.24.058h1.645V19.6c0 .154.058.302.161.41.103.11.242.17.388.17h1.645a.533.533 0 00.388-.17.598.598 0 00.16-.41v-8.13h24.13v8.13c0 .154.057.302.16.41.103.11.242.17.388.17h1.645a.533.533 0 00.388-.17.599.599 0 00.16-.41V3.92h1.646a.53.53 0 00.24-.058.556.556 0 00.192-.165.598.598 0 00.1-.498zM3.839 19.018H3.29V3.921h.549v15.097zm25.226-8.71H4.935V3.922h24.13v6.388zm1.645 8.71h-.549V3.921h.549v15.097zM1.25 2.76l.276-1.16h30.95l.274 1.161H1.251z" fill="#000"/></svg>