<svg width="36" height="33" fill="none" xmlns="http://www.w3.org/2000/svg"><path d="M35.438 13.377H16.311v-1.655h5.625a.557.557 0 00.563-.552V1.24a.557.557 0 00-.563-.552H5.063a.557.557 0 00-.562.551v9.931c0 .305.252.552.563.552h5.625v1.655H.562A.557.557 0 000 13.93v3.31c0 .305.252.552.563.552h1.125v14.345c0 .304.251.551.562.551h1.688c.31 0 .562-.246.562-.551V17.79h18.563v14.345c0 .304.251.551.562.551H33.75c.31 0 .563-.246.563-.551V17.79h1.124a.557.557 0 00.563-.552v-3.31a.557.557 0 00-.563-.552zM5.625 1.791h15.75v6.62H5.625v-6.62zm0 8.827V9.515h15.75v1.103H5.625zm9.563 1.104v1.655h-3.376v-1.655h3.376zM3.374 31.584h-.563V17.791h.563v13.793zm29.813 0h-9v-3.862h9v3.862zm0-4.965h-9v-3.863h9v3.863zm0-4.966h-9v-3.862h9v3.862zm1.687-4.965H1.125V14.48h33.75v2.207z" fill="#000"/></svg>