<svg width="35" height="28" fill="none" xmlns="http://www.w3.org/2000/svg"><path d="M33.97.518H1.03C.46.518 0 .992 0 1.576v24.848c0 .584.46 1.058 1.03 1.058h32.94c.57 0 1.03-.474 1.03-1.058V1.576c0-.584-.46-1.058-1.03-1.058zM20.864 2.635v22.73h-6.726V2.635h6.726zM2.059 25.365V2.635h10.02v22.73H2.058zm20.863 0V2.635h10.02v22.73h-10.02z" fill="#000"/><path d="M26.283 11.813c-.568 0-1.03.474-1.03 1.058v1.13c0 .585.462 1.059 1.03 1.059.569 0 1.03-.475 1.03-1.06v-1.129c0-.584-.461-1.059-1.03-1.059zm-17.568 0c-.569 0-1.03.474-1.03 1.058v1.13c0 .585.461 1.059 1.03 1.059.568 0 1.03-.475 1.03-1.06v-1.129c0-.584-.462-1.059-1.03-1.059z" fill="#000"/></svg>