<svg width="34" height="46" fill="none" xmlns="http://www.w3.org/2000/svg"><path d="M14.872 18.056c6.4 0 11.093 1.216 14.08 3.648 3.03 2.39 4.544 5.675 4.544 9.856 0 2.645-.64 5.035-1.92 7.168-1.237 2.09-3.136 3.755-5.696 4.992-2.517 1.195-5.632 1.792-9.344 1.792-3.157 0-6.208-.47-9.152-1.408-2.944-.981-5.376-2.325-7.296-4.032l2.944-5.056c1.536 1.45 3.499 2.624 5.888 3.52 2.39.853 4.907 1.28 7.552 1.28 3.37 0 5.973-.704 7.808-2.112 1.877-1.45 2.816-3.413 2.816-5.888 0-2.688-1.024-4.715-3.072-6.08-2.048-1.408-5.547-2.112-10.496-2.112H3.352L5.72.2H31v5.568H11.096L9.88 18.056h4.992z" fill="#D9C09A"/></svg>