<svg width="96" height="14" fill="none" xmlns="http://www.w3.org/2000/svg"><path d="M.54 10.48c2.436.18 4.356.27 5.76.27.18 0 .33-.06.45-.18a.61.61 0 00.18-.45v-.63H3.06c-.816 0-1.47-.246-1.962-.738S.36 7.606.36 6.79v-.63c0-.816.246-1.47.738-1.962S2.244 3.46 3.06 3.46h6.12V5.8H4.14a.61.61 0 00-.45.18.61.61 0 00-.18.45c0 .18.06.33.18.45s.27.18.45.18h3.24c.816 0 1.47.246 1.962.738s.738 1.146.738 1.962v.72c0 .816-.246 1.47-.738 1.962s-1.146.738-1.962.738c-2.124 0-4.404-.12-6.84-.36v-2.34zM18.001 13c-1.164.12-2.304.18-3.42.18-.816 0-1.47-.246-1.962-.738s-.738-1.146-.738-1.962V5.89h-1.08V3.46h1.08l.36-2.16h2.79v2.16h2.25v2.43h-2.25v4.14c0 .18.06.33.18.45s.27.18.45.18h2.34V13zm4.782-7.47c-.48 0-.72.24-.72.72v.99h3.06v-.99c0-.48-.24-.72-.72-.72h-1.62zm5.13 7.29c-2.316.24-4.416.36-6.3.36-.816 0-1.47-.246-1.962-.738s-.738-1.146-.738-1.962V6.16c0-.9.252-1.602.756-2.106.516-.516 1.224-.774 2.124-.774h3.6c.9 0 1.602.258 2.106.774.516.504.774 1.206.774 2.106v3.33h-6.21v.72c0 .18.06.33.18.45s.27.18.45.18c1.188 0 2.928-.09 5.22-.27v2.25zm5.663-7.29c-.48 0-.72.24-.72.72v.99h3.06v-.99c0-.48-.24-.72-.72-.72h-1.62zm5.13 7.29c-2.316.24-4.416.36-6.3.36-.816 0-1.47-.246-1.962-.738s-.738-1.146-.738-1.962V6.16c0-.9.252-1.602.756-2.106.516-.516 1.224-.774 2.124-.774h3.6c.9 0 1.602.258 2.106.774.516.504.774 1.206.774 2.106v3.33h-6.21v.72c0 .18.06.33.18.45s.27.18.45.18c1.188 0 2.928-.09 5.22-.27v2.25zm6.833.18c-.804.12-1.572.18-2.304.18-.72 0-1.326-.246-1.818-.738s-.738-1.146-.738-1.962V.4h3.15v9.63c0 .18.06.33.18.45s.27.18.45.18h1.08V13zm13.044-6.66a.61.61 0 00-.18-.45.61.61 0 00-.45-.18h-.45c-.504 0-.942.024-1.314.072-.36.048-.642.084-.846.108v4.68h2.52c.48 0 .72-.24.72-.72V6.34zm-3.24-2.7c1.164-.24 2.184-.36 3.06-.36h.63c.816 0 1.47.246 1.962.738s.738 1.146.738 1.962v4.14c0 .9-.258 1.608-.774 2.124-.504.504-1.206.756-2.106.756h-6.66V.4h3.15v3.24zm11.792 7.02c.636 0 1.356-.12 2.16-.36V9.22h-2.61a.61.61 0 00-.45.18.61.61 0 00-.18.45v.18c0 .18.06.33.18.45s.27.18.45.18h.45zm-3.33-7.02c2.196-.24 4.176-.36 5.94-.36.816 0 1.47.246 1.962.738s.738 1.146.738 1.962V13h-2.79l-.18-.9a6.622 6.622 0 01-1.746.828c-.588.168-1.086.252-1.494.252h-.63c-.816 0-1.47-.246-1.962-.738s-.738-1.146-.738-1.962v-.81c0-.816.246-1.47.738-1.962s1.146-.738 1.962-.738h3.69v-.72a.61.61 0 00-.18-.45.61.61 0 00-.45-.18c-.78 0-1.644.036-2.592.108-.936.072-1.692.126-2.268.162V3.64zM78.92 13c-.804.12-1.572.18-2.304.18-.72 0-1.326-.246-1.818-.738s-.738-1.146-.738-1.962V.4h3.15v9.63c0 .18.06.33.18.45s.27.18.45.18h1.08V13zm6.117 0c-.804.12-1.572.18-2.304.18-.72 0-1.326-.246-1.818-.738s-.738-1.146-.738-1.962V.4h3.15v9.63c0 .18.06.33.18.45s.27.18.45.18h1.08V13zm.897-2.52c2.437.18 4.356.27 5.76.27.18 0 .33-.06.45-.18a.61.61 0 00.18-.45v-.63h-3.87c-.816 0-1.47-.246-1.961-.738-.492-.492-.739-1.146-.739-1.962v-.63c0-.816.246-1.47.739-1.962.492-.492 1.145-.738 1.962-.738h6.12V5.8h-5.04a.61.61 0 00-.45.18.61.61 0 00-.18.45c0 .18.06.33.18.45s.27.18.45.18h3.24c.816 0 1.47.246 1.962.738s.738 1.146.738 1.962v.72c0 .816-.246 1.47-.738 1.962s-1.146.738-1.962.738a69.98 69.98 0 01-6.84-.36v-2.34z" fill="#fff"/></svg>