<svg width="9" height="12" viewBox="0 0 9 12" fill="none" xmlns="http://www.w3.org/2000/svg">
<path d="M7.65147 7.30859C8.18098 6.55989 8.59548 5.75694 8.59548 4.79774C8.59548 3.79052 8.19536 2.82455 7.48315 2.11233C6.77093 1.40012 5.80496 1 4.79774 1C3.79052 1 2.82455 1.40012 2.11233 2.11233C1.40012 2.82455 1 3.79052 1 4.79774C1 6.03906 1.63368 6.89409 2.35417 7.83593L4.76085 10.9978C4.80425 11.0542 5.59635 9.99739 5.66362 9.91275C5.96744 9.52357 6.26837 9.13223 6.5664 8.73871C6.92013 8.26562 7.31076 7.80121 7.65147 7.30859Z" stroke="#BB9D6F" stroke-width="0.7" stroke-linecap="round" stroke-linejoin="round"/>
<path d="M4.79655 6.44097C5.76017 6.44097 6.54134 5.66369 6.54134 4.70486C6.54134 3.74603 5.76017 2.96875 4.79655 2.96875C3.83293 2.96875 3.05176 3.74603 3.05176 4.70486C3.05176 5.66369 3.83293 6.44097 4.79655 6.44097Z" stroke="#BB9D6F" stroke-width="0.7" stroke-linecap="round" stroke-linejoin="round"/>
</svg>
