<svg width="36" height="36" fill="none" xmlns="http://www.w3.org/2000/svg"><path d="M23.4 27.6H33a.6.6 0 00.6-.6v-3.6a.6.6 0 00-.6-.6h-9.6a.6.6 0 00-.6.6V27a.6.6 0 00.6.6zM24 24h8.4v2.4H24V24zm-.6 9.6H33a.6.6 0 00.6-.6v-3.6a.6.6 0 00-.6-.6h-9.6a.6.6 0 00-.6.6V33a.6.6 0 00.6.6zM24 30h8.4v2.4H24V30z" fill="#000"/><path d="M28.8 24.6h-1.2a.6.6 0 000 1.2h1.2a.6.6 0 000-1.2zm.6 6h-1.8a.6.6 0 000 1.2h1.8a.6.6 0 100-1.2z" fill="#000"/><path d="M35.4 0H.6a.6.6 0 00-.6.6v34.8a.6.6 0 00.6.6h34.8a.6.6 0 00.6-.6V.6a.6.6 0 00-.6-.6zM13.2 1.2h14.4V3H13.2V1.2zm12 6.6v7.8H24V7.8a.6.6 0 011.2 0zm-4.2 0v9h-1.2v-9a.6.6 0 011.2 0zm-4.2 0v9h-1.2v-9a.6.6 0 011.2 0zm-3.6-3.6h2.4v1.91a1.8 1.8 0 00-1.2 1.69v9.6a.6.6 0 00.6.6h2.4a.6.6 0 00.6-.6V7.8a1.8 1.8 0 00-1.2-1.69V4.2h3v1.91a1.8 1.8 0 00-1.2 1.69v9.6a.6.6 0 00.6.6h2.4a.6.6 0 00.6-.6V7.8A1.8 1.8 0 0021 6.11V4.2h3v1.91a1.8 1.8 0 00-1.2 1.69v8.4a.6.6 0 00.6.6h2.4a.6.6 0 00.6-.6V7.8a1.8 1.8 0 00-1.2-1.69V4.2h2.4v16.2H13.2V4.2zM12 34.8H1.2V1.2H12v33.6zm8.4 0h-7.2V21.6h7.2v13.2zm14.4 0H21.6V21.6h13.2v13.2zm0-14.4h-6v-4.8h6v4.8zm0-6h-6V7.2h6v7.2zm0-8.4h-6V1.2h6V6z" fill="#000"/><path d="M14.4 25.8h4.8a.6.6 0 00.6-.6v-2.4a.6.6 0 00-.6-.6h-4.8a.6.6 0 00-.6.6v2.4a.6.6 0 00.6.6zm.6-2.4h3.6v1.2H15v-1.2zm-.6 6.6h4.8a.6.6 0 00.6-.6V27a.6.6 0 00-.6-.6h-4.8a.6.6 0 00-.6.6v2.4a.6.6 0 00.6.6zm.6-2.4h3.6v1.2H15v-1.2zm-.6 6.6h4.8a.6.6 0 00.6-.6v-2.4a.6.6 0 00-.6-.6h-4.8a.6.6 0 00-.6.6v2.4a.6.6 0 00.6.6zm.6-2.4h3.6V33H15v-1.2z" fill="#000"/></svg>