<svg width="25" height="25" viewBox="0 0 25 25" fill="none" xmlns="http://www.w3.org/2000/svg">
<path d="M16.25 19.1663H22.9167C23.1468 19.1663 23.3334 18.9798 23.3334 18.7497V16.2497C23.3334 16.0196 23.1468 15.833 22.9167 15.833H16.25C16.0199 15.833 15.8334 16.0196 15.8334 16.2497V18.7497C15.8334 18.9798 16.0199 19.1663 16.25 19.1663ZM16.6667 16.6663H22.5V18.333H16.6667V16.6663Z" fill="black"/>
<path d="M16.25 23.3333H22.9167C23.1468 23.3333 23.3334 23.1468 23.3334 22.9167V20.4167C23.3334 20.1866 23.1468 20 22.9167 20H16.25C16.0199 20 15.8334 20.1866 15.8334 20.4167V22.9167C15.8334 23.1468 16.0199 23.3333 16.25 23.3333ZM16.6667 20.8333H22.5V22.5H16.6667V20.8333Z" fill="black"/>
<path d="M20 17.0835H19.1667C18.9366 17.0835 18.75 17.2701 18.75 17.5002C18.75 17.7303 18.9366 17.9168 19.1667 17.9168H20C20.2301 17.9168 20.4167 17.7303 20.4167 17.5002C20.4167 17.2701 20.2301 17.0835 20 17.0835Z" fill="black"/>
<path d="M20.4167 21.25H19.1667C18.9366 21.25 18.75 21.4366 18.75 21.6667C18.75 21.8968 18.9366 22.0833 19.1667 22.0833H20.4167C20.6468 22.0833 20.8333 21.8968 20.8333 21.6667C20.8333 21.4366 20.6468 21.25 20.4167 21.25Z" fill="black"/>
<path d="M24.5833 0H0.416667C0.186562 0 0 0.186562 0 0.416667V24.5833C0 24.8134 0.186562 25 0.416667 25H24.5833C24.8134 25 25 24.8134 25 24.5833V0.416667C25 0.186562 24.8134 0 24.5833 0ZM9.16667 0.833333H19.1667V2.08333H9.16667V0.833333ZM17.5 5.41667V10.8333H16.6667V5.41667C16.6667 5.18656 16.8532 5 17.0833 5C17.3134 5 17.5 5.18656 17.5 5.41667ZM14.5833 5.41667V11.6667H13.75V5.41667C13.75 5.18656 13.9366 5 14.1667 5C14.3968 5 14.5833 5.18656 14.5833 5.41667ZM11.6667 5.41667V11.6667H10.8333V5.41667C10.8333 5.18656 11.0199 5 11.25 5C11.4801 5 11.6667 5.18656 11.6667 5.41667ZM9.16667 2.91667H10.8333V4.24333C10.3357 4.41927 10.0022 4.88885 10 5.41667V12.0833C10 12.3134 10.1866 12.5 10.4167 12.5H12.0833C12.3134 12.5 12.5 12.3134 12.5 12.0833V5.41667C12.4978 4.88885 12.1643 4.41927 11.6667 4.24333V2.91667H13.75V4.24333C13.2523 4.41927 12.9189 4.88885 12.9167 5.41667V12.0833C12.9167 12.3134 13.1032 12.5 13.3333 12.5H15C15.2301 12.5 15.4167 12.3134 15.4167 12.0833V5.41667C15.4145 4.88885 15.081 4.41927 14.5833 4.24333V2.91667H16.6667V4.24333C16.169 4.41927 15.8355 4.88885 15.8333 5.41667V11.25C15.8333 11.4801 16.0199 11.6667 16.25 11.6667H17.9167C18.1468 11.6667 18.3333 11.4801 18.3333 11.25V5.41667C18.3311 4.88885 17.9977 4.41927 17.5 4.24333V2.91667H19.1667V14.1667H9.16667V2.91667ZM8.33333 24.1667H0.833333V0.833333H8.33333V24.1667ZM14.1667 24.1667H9.16667V15H14.1667V24.1667ZM24.1667 24.1667H15V15H24.1667V24.1667ZM24.1667 14.1667H20V10.8333H24.1667V14.1667ZM24.1667 10H20V5H24.1667V10ZM24.1667 4.16667H20V0.833333H24.1667V4.16667Z" fill="black"/>
<path d="M10 17.917H13.3334C13.5635 17.917 13.75 17.7304 13.75 17.5003V15.8337C13.75 15.6036 13.5635 15.417 13.3334 15.417H10C9.76994 15.417 9.58337 15.6036 9.58337 15.8337V17.5003C9.58337 17.7304 9.76994 17.917 10 17.917ZM10.4167 16.2503H12.9167V17.0837H10.4167V16.2503Z" fill="black"/>
<path d="M10 20.833H13.3334C13.5635 20.833 13.75 20.6464 13.75 20.4163V18.7497C13.75 18.5196 13.5635 18.333 13.3334 18.333H10C9.76994 18.333 9.58337 18.5196 9.58337 18.7497V20.4163C9.58337 20.6464 9.76994 20.833 10 20.833ZM10.4167 19.1663H12.9167V19.9997H10.4167V19.1663Z" fill="black"/>
<path d="M10 23.75H13.3334C13.5635 23.75 13.75 23.5634 13.75 23.3333V21.6667C13.75 21.4366 13.5635 21.25 13.3334 21.25H10C9.76994 21.25 9.58337 21.4366 9.58337 21.6667V23.3333C9.58337 23.5634 9.76994 23.75 10 23.75ZM10.4167 22.0833H12.9167V22.9167H10.4167V22.0833Z" fill="black"/>
</svg>
