<svg width="121" height="14" fill="none" xmlns="http://www.w3.org/2000/svg"><path d="M.702 10.39c3.288.18 5.514.27 6.678.27.276 0 .492-.078.648-.234.168-.168.252-.39.252-.666V8.14H4.14c-1.26 0-2.178-.282-2.754-.846C.822 6.718.54 5.8.54 4.54V4c0-1.26.282-2.172.846-2.736C1.962.688 2.88.4 4.14.4h6.318v2.52H4.86c-.72 0-1.08.36-1.08 1.08v.36c0 .72.36 1.08 1.08 1.08H8.1c1.176 0 2.04.276 2.592.828.552.552.828 1.416.828 2.592v.9c0 1.176-.276 2.04-.828 2.592-.552.552-1.416.828-2.592.828-.612 0-1.26-.012-1.944-.036L4.5 13.072c-1.224-.06-2.49-.144-3.798-.252v-2.43zM18.362 13h-3.24V2.92h-3.78V.4h10.8v2.52h-3.78V13zm15.032 0h-9.99V.4h9.99v2.52h-6.75v2.43h5.31v2.52h-5.31v2.61h6.75V13zm11.426 0h-9.99V.4h9.99v2.52h-6.75v2.43h5.31v2.52h-5.31v2.61h6.75V13zm4.676-2.52h6.57V13h-9.81V.4h3.24v10.08zM62.726.4h7.2c1.177 0 2.04.27 2.593.81.551.528.828 1.338.828 2.43 0 .72-.156 1.308-.468 1.764-.313.444-.697.756-1.153.936.972.264 1.633.912 1.98 1.944.12.372.18.804.18 1.296 0 1.176-.275 2.04-.828 2.592-.552.552-1.416.828-2.592.828h-7.74V.4zm7.92 8.64c0-.72-.36-1.08-1.08-1.08h-3.6v2.52h3.6c.72 0 1.08-.36 1.08-1.08v-.36zM70.106 4c0-.72-.36-1.08-1.08-1.08h-3.06v2.52h3.06c.72 0 1.08-.36 1.08-1.08V4zm7.65 9h-3.51L79.016.4h3.6l4.77 12.6h-3.51l-.81-2.25h-4.5l-.81 2.25zm1.62-4.59h2.88l-1.44-4.23-1.44 4.23zm12.15 2.07h6.57V13h-9.81V.4h3.24v10.08zm11.073 0h6.57V13h-9.81V.4h3.24v10.08zm7.457-.09c3.288.18 5.514.27 6.678.27.276 0 .492-.078.648-.234.168-.168.252-.39.252-.666V8.14h-4.14c-1.26 0-2.178-.282-2.754-.846-.564-.576-.846-1.494-.846-2.754V4c0-1.26.282-2.172.846-2.736.576-.576 1.494-.864 2.754-.864h6.318v2.52h-5.598c-.72 0-1.08.36-1.08 1.08v.36c0 .72.36 1.08 1.08 1.08h3.24c1.176 0 2.04.276 2.592.828.552.552.828 1.416.828 2.592v.9c0 1.176-.276 2.04-.828 2.592-.552.552-1.416.828-2.592.828-.612 0-1.26-.012-1.944-.036l-1.656-.072c-1.224-.06-2.49-.144-3.798-.252v-2.43z" fill="#E7E7E7"/></svg>