<svg width="27" height="21" viewBox="0 0 27 21" fill="none" xmlns="http://www.w3.org/2000/svg">
<path d="M26.2059 0C24.9897 0 1.65086 0 0.794118 0C0.355553 0 0 0.365712 0 0.816807V19.9845C0 20.4356 0.355553 20.8013 0.794118 20.8013H26.2059C26.6444 20.8013 27 20.4356 27 19.9845V0.816807C27 0.365712 26.6444 0 26.2059 0ZM16.0941 1.63361V19.1677H10.9059V1.63361H16.0941ZM1.58824 19.1677V1.63361H9.31765V19.1677H1.58824ZM17.6824 19.1677V1.63361H25.4118V19.1677H17.6824Z" fill="black"/>
<path d="M20.2763 8.71289C19.8377 8.71289 19.4822 9.0786 19.4822 9.5297V10.401C19.4822 10.852 19.8377 11.2178 20.2763 11.2178C20.7149 11.2178 21.0704 10.852 21.0704 10.401V9.5297C21.0704 9.0786 20.7149 8.71289 20.2763 8.71289Z" fill="black"/>
<path d="M6.72368 8.71289C6.28512 8.71289 5.92957 9.0786 5.92957 9.5297V10.401C5.92957 10.852 6.28512 11.2178 6.72368 11.2178C7.16225 11.2178 7.5178 10.852 7.5178 10.401V9.5297C7.5178 9.0786 7.16225 8.71289 6.72368 8.71289Z" fill="black"/>
</svg>
