<svg width="23" height="20" viewBox="0 0 23 20" fill="none" xmlns="http://www.w3.org/2000/svg">
<path d="M22.1484 7.93103H10.1953V6.89655H13.7109C13.9051 6.89655 14.0625 6.74216 14.0625 6.55172V0.344828C14.0625 0.154397 13.9051 0 13.7109 0H3.16406C2.96991 0 2.8125 0.154397 2.8125 0.344828V6.55172C2.8125 6.74216 2.96991 6.89655 3.16406 6.89655H6.67969V7.93103H0.351562C0.157412 7.93103 0 8.08543 0 8.27586V10.3448C0 10.5353 0.157412 10.6897 0.351562 10.6897H1.05469V19.6552C1.05469 19.8456 1.2121 20 1.40625 20H2.46094C2.65509 20 2.8125 19.8456 2.8125 19.6552V10.6897H14.4141V19.6552C14.4141 19.8456 14.5715 20 14.7656 20H21.0938C21.2879 20 21.4453 19.8456 21.4453 19.6552V10.6897H22.1484C22.3426 10.6897 22.5 10.5353 22.5 10.3448V8.27586C22.5 8.08543 22.3426 7.93103 22.1484 7.93103ZM3.51562 0.689655H13.3594V4.82759H3.51562V0.689655ZM3.51562 6.2069V5.51724H13.3594V6.2069H3.51562ZM9.49219 6.89655V7.93103H7.38281V6.89655H9.49219ZM2.10938 19.3103H1.75781V10.6897H2.10938V19.3103ZM20.7422 19.3103H15.1172V16.8966H20.7422V19.3103ZM20.7422 16.2069H15.1172V13.7931H20.7422V16.2069ZM20.7422 13.1034H15.1172V10.6897H20.7422V13.1034ZM21.7969 10H0.703125V8.62069H21.7969V10Z" fill="black"/>
</svg>
