<svg width="15" height="14" viewBox="0 0 15 14" fill="none" xmlns="http://www.w3.org/2000/svg">
<path d="M3.00936 14C2.23415 14.0001 1.48999 13.6883 0.937502 13.132L0.876565 13.0697C0.598975 12.7926 0.37841 12.4614 0.227868 12.0958C0.0773249 11.7301 -0.000149855 11.3373 8.66158e-06 10.9405C-0.000972341 10.5109 0.0813866 10.0854 0.242313 9.68867C0.403239 9.2919 0.639533 8.93175 0.937502 8.62909L8.20308 1.27766C8.94129 0.491333 9.95188 0.0331196 11.0172 0.00172589C12.0824 -0.0296678 13.1171 0.36827 13.8984 1.10982C14.2507 1.46938 14.5296 1.89709 14.7187 2.36803C14.9078 2.83896 15.0034 3.3437 14.9999 3.85282C14.9957 4.42142 14.8818 4.98357 14.6646 5.50697C14.4474 6.03038 14.1312 6.50471 13.7343 6.90273L7.20465 13.5205C7.16406 13.5763 7.11207 13.6225 7.05229 13.6557C6.99252 13.6889 6.92639 13.7085 6.85849 13.7129C6.7906 13.7174 6.72257 13.7067 6.65913 13.6815C6.59569 13.6564 6.53836 13.6174 6.49112 13.5673C6.44388 13.5172 6.40787 13.4572 6.38558 13.3915C6.36329 13.3257 6.35526 13.2558 6.36205 13.1865C6.36884 13.1173 6.39028 13.0503 6.42489 12.9904C6.4595 12.9305 6.50645 12.879 6.56246 12.8395L13.0734 6.22177C13.3826 5.91298 13.6291 5.54475 13.7988 5.13822C13.9686 4.73169 14.0581 4.29486 14.0624 3.85282C14.0658 3.47026 13.9946 3.09085 13.8529 2.73678C13.7113 2.38272 13.502 2.06111 13.2374 1.79077C12.6317 1.22628 11.8336 0.9276 11.0148 0.95899C10.1961 0.990379 9.42204 1.34933 8.85932 1.95861L1.61719 9.31005C1.40377 9.52205 1.23376 9.77541 1.11706 10.0553C1.00037 10.3353 0.939326 10.6362 0.937502 10.9405C0.936501 11.2077 0.987362 11.4725 1.08714 11.7194C1.18692 11.9664 1.33362 12.1906 1.51875 12.3791L1.57969 12.4415C1.9991 12.8366 2.55339 13.0474 3.12324 13.0286C3.6931 13.0098 4.23293 12.7628 4.62654 12.3408L10.8843 6.01077C11.0027 5.88836 11.0959 5.74303 11.1587 5.58329C11.2215 5.42355 11.2525 5.2526 11.2499 5.08045C11.251 4.93093 11.2229 4.78269 11.1674 4.64438C11.1118 4.50606 11.03 4.38044 10.9265 4.27482C10.6898 4.05275 10.3772 3.93481 10.0562 3.94648C9.73523 3.95814 9.43161 4.09846 9.21089 4.33716L4.89841 8.71061C4.81015 8.80028 4.69068 8.8504 4.56629 8.84995C4.4419 8.8495 4.32278 8.79852 4.23514 8.70822C4.14749 8.61792 4.0985 8.4957 4.09894 8.36844C4.09938 8.24119 4.14921 8.11932 4.23748 8.02966L8.5687 3.64182C8.96572 3.22573 9.50671 2.98599 10.075 2.97433C10.6432 2.96266 11.1932 3.18001 11.6062 3.57948C11.7961 3.77729 11.9454 4.01201 12.0452 4.26981C12.1451 4.5276 12.1934 4.80324 12.1874 5.08045C12.1869 5.37898 12.1282 5.67441 12.0147 5.94943C11.9012 6.22445 11.7353 6.47355 11.5265 6.68214L5.28747 13.0313C4.68274 13.649 3.86391 13.9972 3.00936 14Z" fill="black"/>
</svg>
