<svg width="10" height="7" viewBox="0 0 10 7" fill="none" xmlns="http://www.w3.org/2000/svg">
<path d="M0.312 4.84C1.77333 4.92 2.76267 4.96 3.28 4.96C3.40267 4.96 3.49867 4.92533 3.568 4.856C3.64267 4.78133 3.68 4.68267 3.68 4.56V3.84H1.84C1.28 3.84 0.872 3.71467 0.616 3.464C0.365333 3.208 0.24 2.8 0.24 2.24V2C0.24 1.44 0.365333 1.03467 0.616 0.784C0.872 0.528 1.28 0.4 1.84 0.4H4.648V1.52H2.16C1.84 1.52 1.68 1.68 1.68 2V2.16C1.68 2.48 1.84 2.64 2.16 2.64H3.6C4.12267 2.64 4.50667 2.76267 4.752 3.008C4.99733 3.25333 5.12 3.63733 5.12 4.16V4.56C5.12 5.08267 4.99733 5.46667 4.752 5.712C4.50667 5.95733 4.12267 6.08 3.6 6.08C3.328 6.08 3.04 6.07467 2.736 6.064L2 6.032C1.456 6.00533 0.893333 5.968 0.312 5.92V4.84ZM8.16094 6H6.72094V1.52H5.04094V0.4H9.84094V1.52H8.16094V6Z" fill="black"/>
</svg>
