<svg width="16" height="16" viewBox="0 0 16 16" fill="none" xmlns="http://www.w3.org/2000/svg">
<rect width="16" height="16" fill="#E5E5E5"/>
<rect width="116" height="98" transform="translate(-73 -49)" fill="white"/>
<circle cx="8" cy="8" r="7.65" fill="#D4B07A" stroke="black" stroke-width="0.7"/>
<path d="M2.7 8.8H4.525V9.5H1.8V6H2.7V8.8ZM7.12617 6.95C7.12617 6.75 7.02617 6.65 6.82617 6.65H5.97617C5.77617 6.65 5.67617 6.75 5.67617 6.95V8.55C5.67617 8.75 5.77617 8.85 5.97617 8.85H6.82617C7.02617 8.85 7.12617 8.75 7.12617 8.55V6.95ZM8.02617 8.55C8.02617 8.9 7.94617 9.155 7.78617 9.315C7.62951 9.47167 7.37617 9.55 7.02617 9.55H5.77617C5.42617 9.55 5.17117 9.47167 5.01117 9.315C4.85451 9.155 4.77617 8.9 4.77617 8.55V6.95C4.77617 6.6 4.85451 6.34667 5.01117 6.19C5.17117 6.03 5.42617 5.95 5.77617 5.95H7.02617C7.37617 5.95 7.62951 6.03 7.78617 6.19C7.94617 6.34667 8.02617 6.6 8.02617 6.95V8.55ZM9.42852 9.5H8.52852V6H11.3035V6.7H9.42852V7.525H10.9035V8.225H9.42852V9.5ZM13.3535 9.5H12.4535V6.7H11.4035V6H14.4035V6.7H13.3535V9.5Z" fill="black"/>
</svg>
