<svg width="25" height="50" viewBox="0 0 25 50" fill="none" xmlns="http://www.w3.org/2000/svg">
<path d="M22.0646 16.2331H2.58354V14.4621H22.0646V16.2331ZM0 49.8814L2.51626 18.004H4.28191L2.74939 37.4136L2.46919 40.9557L1.76509 49.8814H0ZM4.31098 40.1411L4.45108 38.3702H20.1965L20.3366 40.1411H4.31098ZM22.8825 49.8814L22.1743 40.9584L21.8941 37.4164L20.3663 18.004H22.1316L24.6484 49.8814H22.8825ZM3.469 10.0346H19.408C19.8072 10.0346 20.1572 9.76742 20.2624 9.38201L22.483 1.23545C22.6109 0.768363 22.9911 0.413684 23.4662 0.318161C23.941 0.222638 24.4289 0.403162 24.7268 0.784976C24.9724 1.09591 25.0588 1.5043 24.9599 1.88778L22.2582 12.691H3.469C2.73555 12.691 2.14082 12.0965 2.14082 11.3628C2.14082 10.6291 2.73555 10.0346 3.469 10.0346Z" fill="black"/>
</svg>
