<svg width="34" height="21" viewBox="0 0 34 21" fill="none" xmlns="http://www.w3.org/2000/svg">
<path d="M33.9836 3.19993L33.4352 0.877341C33.4056 0.751724 33.3371 0.640206 33.2407 0.560511C33.1444 0.480817 33.0256 0.43752 32.9033 0.4375H1.0967C0.974408 0.43752 0.855634 0.480817 0.759253 0.560511C0.662872 0.640206 0.594413 0.751724 0.564758 0.877341L0.0163687 3.19993C-0.00383857 3.28553 -0.00535706 3.37488 0.0119284 3.46119C0.0292139 3.5475 0.0648489 3.6285 0.116127 3.69805C0.167404 3.7676 0.232976 3.82386 0.307862 3.86256C0.382748 3.90125 0.464978 3.92137 0.548307 3.92139H2.19348V19.5989C2.19348 19.7529 2.25125 19.9006 2.3541 20.0095C2.45694 20.1184 2.59642 20.1795 2.74187 20.1795H4.38703C4.53248 20.1795 4.67196 20.1184 4.7748 20.0095C4.87765 19.9006 4.93542 19.7529 4.93542 19.5989V11.4698H29.0646V19.5989C29.0646 19.7529 29.1223 19.9006 29.2252 20.0095C29.328 20.1184 29.4675 20.1795 29.613 20.1795H31.2581C31.4036 20.1795 31.5431 20.1184 31.6459 20.0095C31.7487 19.9006 31.8065 19.7529 31.8065 19.5989V3.92139H33.4517C33.535 3.92137 33.6172 3.90125 33.6921 3.86256C33.767 3.82386 33.8326 3.7676 33.8839 3.69805C33.9351 3.6285 33.9708 3.5475 33.9881 3.46119C34.0054 3.37488 34.0038 3.28553 33.9836 3.19993ZM3.83864 19.0182H3.29026V3.92139H3.83864V19.0182ZM29.0646 10.3085H4.93542V3.92139H29.0646V10.3085ZM30.7097 19.0182H30.1614V3.92139H30.7097V19.0182ZM1.25093 2.76009L1.52513 1.5988H32.4749L32.7491 2.76009H1.25093Z" fill="black"/>
</svg>
