<svg width="35" height="28" viewBox="0 0 35 28" fill="none" xmlns="http://www.w3.org/2000/svg">
<path d="M33.9706 0.517578C32.3941 0.517578 2.14001 0.517578 1.02941 0.517578C0.460902 0.517578 0 0.991649 0 1.5764V26.4235C0 27.0082 0.460902 27.4823 1.02941 27.4823H33.9706C34.5391 27.4823 35 27.0082 35 26.4235V1.5764C35 0.991649 34.5391 0.517578 33.9706 0.517578ZM20.8627 2.63522V25.3646H14.1373V2.63522H20.8627ZM2.05882 25.3646V2.63522H12.0784V25.3646H2.05882ZM22.9216 25.3646V2.63522H32.9412V25.3646H22.9216Z" fill="black"/>
<path d="M26.2833 11.8125C25.7148 11.8125 25.2539 12.2866 25.2539 12.8713V14.0007C25.2539 14.5855 25.7148 15.0596 26.2833 15.0596C26.8518 15.0596 27.3127 14.5855 27.3127 14.0007V12.8713C27.3127 12.2866 26.8518 11.8125 26.2833 11.8125Z" fill="black"/>
<path d="M8.71496 11.8125C8.14645 11.8125 7.68555 12.2866 7.68555 12.8713V14.0007C7.68555 14.5855 8.14645 15.0596 8.71496 15.0596C9.28347 15.0596 9.74437 14.5855 9.74437 14.0007V12.8713C9.74437 12.2866 9.28347 11.8125 8.71496 11.8125Z" fill="black"/>
</svg>
