<svg width="9" height="12" fill="none" xmlns="http://www.w3.org/2000/svg"><path d="M7.651 7.309c.53-.75.944-1.552.944-2.511a3.798 3.798 0 00-7.595 0c0 1.241.634 2.096 1.354 3.038l2.407 3.162c.043.056.835-1 .903-1.085.303-.39.604-.78.902-1.174.354-.473.745-.938 1.085-1.43z" stroke="#efc07a" stroke-width=".7" stroke-linecap="round" stroke-linejoin="round"/><path d="M4.797 6.441A1.74 1.74 0 006.54 4.705a1.74 1.74 0 00-1.744-1.736 1.74 1.74 0 00-1.745 1.736A1.74 1.74 0 004.797 6.44z" stroke="#efc07a" stroke-width=".7" stroke-linecap="round" stroke-linejoin="round"/></svg>