<svg width="20" height="20" fill="none" xmlns="http://www.w3.org/2000/svg"><path d="M13.07 0H6.93C1.328 0 0 1.328 0 6.93v6.14C0 18.672 1.328 20 6.93 20h6.14c5.602 0 6.93-1.328 6.93-6.93V6.93C20 1.328 18.659 0 13.07 0zm3.076 14.267h-1.452c-.55 0-.72-.436-1.709-1.439-.86-.833-1.24-.943-1.452-.943-.299 0-.384.084-.384.495v1.311c0 .352-.11.564-1.042.564-1.54 0-3.248-.932-4.447-2.667-1.806-2.542-2.3-4.446-2.3-4.84 0-.212.084-.41.49-.41h1.455c.369 0 .509.17.652.563.719 2.077 1.917 3.896 2.411 3.896.183 0 .267-.084.267-.55V8.102c-.055-.99-.576-1.074-.576-1.425 0-.17.14-.34.364-.34h2.288c.31 0 .424.17.424.535v2.893c0 .313.14.423.224.423.182 0 .339-.11.677-.449C13.08 8.567 13.83 6.76 13.83 6.76c.097-.211.266-.41.634-.41h1.455c.437 0 .534.225.437.537-.183.847-1.963 3.36-1.963 3.36-.153.253-.212.364 0 .647.156.212.664.651 1.002 1.045.622.706 1.1 1.299 1.228 1.709.143.407-.069.618-.48.618l.003.001z"/></svg>