<svg width="36" height="33" viewBox="0 0 36 33" fill="none" xmlns="http://www.w3.org/2000/svg">
<path d="M35.4375 13.3772H16.3125V11.722H21.9375C22.2481 11.722 22.5 11.4749 22.5 11.1703V1.23922C22.5 0.934534 22.2481 0.6875 21.9375 0.6875H5.0625C4.75186 0.6875 4.5 0.934534 4.5 1.23922V11.1703C4.5 11.4749 4.75186 11.722 5.0625 11.722H10.6875V13.3772H0.5625C0.251859 13.3772 0 13.6242 0 13.9289V17.2392C0 17.5439 0.251859 17.7909 0.5625 17.7909H1.6875V32.1358C1.6875 32.4405 1.93936 32.6875 2.25 32.6875H3.9375C4.24814 32.6875 4.5 32.4405 4.5 32.1358V17.7909H23.0625V32.1358C23.0625 32.4405 23.3144 32.6875 23.625 32.6875H33.75C34.0606 32.6875 34.3125 32.4405 34.3125 32.1358V17.7909H35.4375C35.7481 17.7909 36 17.5439 36 17.2392V13.9289C36 13.6242 35.7481 13.3772 35.4375 13.3772ZM5.625 1.79095H21.375V8.41164H5.625V1.79095ZM5.625 10.6185V9.51509H21.375V10.6185H5.625ZM15.1875 11.722V13.3772H11.8125V11.722H15.1875ZM3.375 31.5841H2.8125V17.7909H3.375V31.5841ZM33.1875 31.5841H24.1875V27.722H33.1875V31.5841ZM33.1875 26.6185H24.1875V22.7565H33.1875V26.6185ZM33.1875 21.653H24.1875V17.7909H33.1875V21.653ZM34.875 16.6875H1.125V14.4806H34.875V16.6875Z" fill="black"/>
</svg>
