<svg width="12" height="12" fill="none" xmlns="http://www.w3.org/2000/svg"><path d="M7.194 2.911A2.395 2.395 0 019.085 4.8M7.194 1a4.312 4.312 0 012.569 1.231A4.297 4.297 0 0111 4.794m-.479 3.813v1.434a.955.955 0 01-1.043.955A9.485 9.485 0 015.346 9.53a9.327 9.327 0 01-2.872-2.867 9.445 9.445 0 01-1.47-4.143.954.954 0 01.953-1.041h1.436a.959.959 0 01.957.822c.06.458.173.909.335 1.342a.954.954 0 01-.215 1.009l-.608.606a7.653 7.653 0 002.872 2.867l.608-.606a.958.958 0 011.01-.215c.435.161.886.274 1.346.334a.958.958 0 01.823.97z" stroke="#EFC07A" stroke-width=".7" stroke-linecap="round" stroke-linejoin="round"/></svg>