<svg width="11" height="11" viewBox="0 0 11 11" fill="none" xmlns="http://www.w3.org/2000/svg">
<path d="M6.57461 2.72017C6.99545 2.80213 7.38222 3.00755 7.68541 3.31017C7.9886 3.61278 8.19442 3.99881 8.27653 4.41885M6.57461 1C7.44895 1.09695 8.26429 1.48774 8.88674 2.10823C9.5092 2.72871 9.90177 3.54199 10 4.41454M9.56913 7.84629V9.13642C9.56962 9.25619 9.54504 9.37474 9.49697 9.48448C9.44889 9.59421 9.37839 9.69272 9.28996 9.77369C9.20154 9.85465 9.09715 9.9163 8.98348 9.95467C8.8698 9.99304 8.74935 10.0073 8.62984 9.99651C7.30399 9.85272 6.03042 9.40053 4.91146 8.67628C3.87041 8.01601 2.98778 7.13507 2.32626 6.09601C1.59808 4.97412 1.14493 3.6968 1.0035 2.36754C0.99273 2.24862 1.00689 2.12876 1.04508 2.0156C1.08326 1.90244 1.14464 1.79846 1.22529 1.71027C1.30595 1.62208 1.40412 1.55162 1.51355 1.50338C1.62299 1.45513 1.74129 1.43016 1.86092 1.43004H3.15352C3.36263 1.42799 3.56534 1.50189 3.72389 1.63798C3.88243 1.77407 3.98599 1.96306 4.01526 2.16972C4.06981 2.58259 4.17099 2.98797 4.31686 3.37814C4.37483 3.53206 4.38738 3.69935 4.35302 3.86017C4.31865 4.02099 4.23882 4.16861 4.12297 4.28553L3.57577 4.83169C4.18914 5.90832 5.08228 6.79976 6.16098 7.41195L6.70818 6.86579C6.82532 6.75017 6.97323 6.67049 7.13435 6.63619C7.29548 6.60189 7.46309 6.61441 7.6173 6.67227C8.00822 6.81786 8.41438 6.91885 8.82804 6.9733C9.03734 7.00277 9.22849 7.108 9.36513 7.26896C9.50177 7.42992 9.57438 7.63539 9.56913 7.84629Z" stroke-width="0.7" stroke-linecap="round" stroke-linejoin="round"/>
</svg>
