<svg width="153" height="47" fill="none" xmlns="http://www.w3.org/2000/svg"><path d="M22.088 29.04c-1.493 0-2.816-.299-3.968-.896-1.152-.64-2.432-1.536-3.84-2.688-1.067-.896-1.963-1.557-2.688-1.984a4.145 4.145 0 00-2.24-.64c-1.365 0-2.453.533-3.264 1.6-.81 1.024-1.259 2.41-1.344 4.16H.712c.085-3.456.875-6.059 2.368-7.808 1.536-1.792 3.563-2.688 6.08-2.688 1.536 0 2.859.32 3.968.96 1.152.597 2.432 1.493 3.84 2.688 1.11.896 2.005 1.557 2.688 1.984.683.384 1.43.576 2.24.576 1.408 0 2.496-.512 3.264-1.536.81-1.067 1.259-2.496 1.344-4.288h4.032c-.085 3.499-.896 6.144-2.432 7.936-1.493 1.75-3.499 2.624-6.016 2.624zm45.91 11.392V46H35.805v-4.352l18.24-17.6c2.22-2.133 3.712-3.968 4.48-5.504.769-1.579 1.153-3.157 1.153-4.736 0-2.347-.832-4.16-2.496-5.44-1.622-1.323-3.968-1.984-7.04-1.984-4.95 0-8.769 1.621-11.457 4.864l-4.352-3.776c1.75-2.133 4.032-3.797 6.849-4.992C44.04 1.285 47.218.688 50.716.688c4.694 0 8.427 1.13 11.2 3.392 2.774 2.219 4.16 5.248 4.16 9.088 0 2.39-.511 4.65-1.535 6.784-1.025 2.133-2.966 4.565-5.825 7.296L45.023 40.432h22.976zm23.378 6.08c-3.541 0-6.699-.896-9.472-2.688-2.73-1.835-4.885-4.48-6.464-7.936-1.579-3.456-2.368-7.552-2.368-12.288 0-4.736.79-8.832 2.368-12.288 1.579-3.456 3.733-6.08 6.464-7.872 2.773-1.835 5.93-2.752 9.472-2.752 3.499 0 6.613.917 9.344 2.752 2.773 1.792 4.949 4.416 6.528 7.872 1.579 3.456 2.368 7.552 2.368 12.288 0 4.736-.789 8.832-2.368 12.288-1.579 3.456-3.755 6.101-6.528 7.936-2.73 1.792-5.845 2.688-9.344 2.688zm0-5.696c3.584 0 6.443-1.472 8.576-4.416 2.176-2.944 3.264-7.21 3.264-12.8 0-5.59-1.088-9.856-3.264-12.8-2.133-2.944-4.992-4.416-8.576-4.416-3.627 0-6.528 1.472-8.704 4.416-2.133 2.944-3.2 7.21-3.2 12.8 0 5.59 1.067 9.856 3.2 12.8 2.176 2.944 5.077 4.416 8.704 4.416zm42.688 5.696c-3.542 0-6.699-.896-9.472-2.688-2.731-1.835-4.886-4.48-6.464-7.936-1.579-3.456-2.368-7.552-2.368-12.288 0-4.736.789-8.832 2.368-12.288 1.578-3.456 3.733-6.08 6.464-7.872 2.773-1.835 5.93-2.752 9.472-2.752 3.498 0 6.613.917 9.344 2.752 2.773 1.792 4.949 4.416 6.528 7.872 1.578 3.456 2.368 7.552 2.368 12.288 0 4.736-.79 8.832-2.368 12.288-1.579 3.456-3.755 6.101-6.528 7.936-2.731 1.792-5.846 2.688-9.344 2.688zm0-5.696c3.584 0 6.442-1.472 8.576-4.416 2.176-2.944 3.264-7.21 3.264-12.8 0-5.59-1.088-9.856-3.264-12.8-2.134-2.944-4.992-4.416-8.576-4.416-3.627 0-6.528 1.472-8.704 4.416-2.134 2.944-3.2 7.21-3.2 12.8 0 5.59 1.066 9.856 3.2 12.8 2.176 2.944 5.077 4.416 8.704 4.416z" fill="#D9C09A"/></svg>