<svg width="25" height="14" viewBox="0 0 25 14" fill="none" xmlns="http://www.w3.org/2000/svg">
<path d="M24.988 1.95897L24.5847 0.311912C24.5629 0.222831 24.5126 0.143748 24.4417 0.0872332C24.3709 0.0307182 24.2835 1.39026e-05 24.1936 0H0.806395C0.716477 1.39026e-05 0.629143 0.0307182 0.558274 0.0872332C0.487406 0.143748 0.437069 0.222831 0.415264 0.311912L0.0120358 1.95897C-0.00282248 2.01967 -0.00393902 2.08303 0.00877091 2.14424C0.0214808 2.20545 0.047683 2.26289 0.0853872 2.31221C0.123091 2.36153 0.171306 2.40143 0.226369 2.42887C0.281432 2.45631 0.341896 2.47058 0.403167 2.47059H1.61285V13.5882C1.61285 13.6974 1.65533 13.8022 1.73095 13.8794C1.80657 13.9566 1.90914 14 2.01608 14H3.22576C3.3327 14 3.43527 13.9566 3.51089 13.8794C3.58651 13.8022 3.62899 13.6974 3.62899 13.5882V7.82353H21.371V13.5882C21.371 13.6974 21.4135 13.8022 21.4891 13.8794C21.5647 13.9566 21.6673 14 21.7742 14H22.9839C23.0909 14 23.1934 13.9566 23.269 13.8794C23.3447 13.8022 23.3871 13.6974 23.3871 13.5882V2.47059H24.5968C24.6581 2.47058 24.7186 2.45631 24.7736 2.42887C24.8287 2.40143 24.8769 2.36153 24.9146 2.31221C24.9523 2.26289 24.9785 2.20545 24.9912 2.14424C25.0039 2.08303 25.0028 2.01967 24.988 1.95897ZM2.82253 13.1765H2.41931V2.47059H2.82253V13.1765ZM21.371 7H3.62899V2.47059H21.371V7ZM22.5807 13.1765H22.1775V2.47059H22.5807V13.1765ZM0.919802 1.64706L1.12142 0.823529H23.8786L24.0802 1.64706H0.919802Z" fill="black"/>
</svg>
