<svg width="36" height="36" viewBox="0 0 36 36" fill="none" xmlns="http://www.w3.org/2000/svg">
<path d="M23.4008 27.5998H33.0008C33.3321 27.5998 33.6008 27.3312 33.6008 26.9998V23.3998C33.6008 23.0685 33.3321 22.7998 33.0008 22.7998H23.4008C23.0694 22.7998 22.8008 23.0685 22.8008 23.3998V26.9998C22.8008 27.3312 23.0694 27.5998 23.4008 27.5998ZM24.0008 23.9998H32.4008V26.3998H24.0008V23.9998Z" fill="black"/>
<path d="M23.4008 33.5998H33.0008C33.3321 33.5998 33.6008 33.3312 33.6008 32.9998V29.3998C33.6008 29.0685 33.3321 28.7998 33.0008 28.7998H23.4008C23.0694 28.7998 22.8008 29.0685 22.8008 29.3998V32.9998C22.8008 33.3312 23.0694 33.5998 23.4008 33.5998ZM24.0008 29.9998H32.4008V32.3998H24.0008V29.9998Z" fill="black"/>
<path d="M28.8 24.5996H27.6C27.2686 24.5996 27 24.8683 27 25.1996C27 25.531 27.2686 25.7996 27.6 25.7996H28.8C29.1313 25.7996 29.4 25.531 29.4 25.1996C29.4 24.8683 29.1313 24.5996 28.8 24.5996Z" fill="black"/>
<path d="M29.4 30.5996H27.6C27.2686 30.5996 27 30.8683 27 31.1996C27 31.531 27.2686 31.7996 27.6 31.7996H29.4C29.7314 31.7996 30 31.531 30 31.1996C30 30.8683 29.7314 30.5996 29.4 30.5996Z" fill="black"/>
<path d="M35.4 0H0.6C0.26865 0 0 0.26865 0 0.6V35.4C0 35.7313 0.26865 36 0.6 36H35.4C35.7313 36 36 35.7313 36 35.4V0.6C36 0.26865 35.7313 0 35.4 0ZM13.2 1.2H27.6V3H13.2V1.2ZM25.2 7.8V15.6H24V7.8C24 7.46865 24.2687 7.2 24.6 7.2C24.9314 7.2 25.2 7.46865 25.2 7.8ZM21 7.8V16.8H19.8V7.8C19.8 7.46865 20.0687 7.2 20.4 7.2C20.7313 7.2 21 7.46865 21 7.8ZM16.8 7.8V16.8H15.6V7.8C15.6 7.46865 15.8687 7.2 16.2 7.2C16.5314 7.2 16.8 7.46865 16.8 7.8ZM13.2 4.2H15.6V6.1104C14.8834 6.36375 14.4032 7.03995 14.4 7.8V17.4C14.4 17.7313 14.6687 18 15 18H17.4C17.7313 18 18 17.7313 18 17.4V7.8C17.9969 7.03995 17.5166 6.36375 16.8 6.1104V4.2H19.8V6.1104C19.0834 6.36375 18.6032 7.03995 18.6 7.8V17.4C18.6 17.7313 18.8687 18 19.2 18H21.6C21.9314 18 22.2 17.7313 22.2 17.4V7.8C22.1969 7.03995 21.7166 6.36375 21 6.1104V4.2H24V6.1104C23.2834 6.36375 22.8032 7.03995 22.8 7.8V16.2C22.8 16.5314 23.0687 16.8 23.4 16.8H25.8C26.1314 16.8 26.4 16.5314 26.4 16.2V7.8C26.3969 7.03995 25.9166 6.36375 25.2 6.1104V4.2H27.6V20.4H13.2V4.2ZM12 34.8H1.2V1.2H12V34.8ZM20.4 34.8H13.2V21.6H20.4V34.8ZM34.8 34.8H21.6V21.6H34.8V34.8ZM34.8 20.4H28.8V15.6H34.8V20.4ZM34.8 14.4H28.8V7.2H34.8V14.4ZM34.8 6H28.8V1.2H34.8V6Z" fill="black"/>
<path d="M14.4008 25.8002H19.2008C19.5321 25.8002 19.8008 25.5315 19.8008 25.2002V22.8002C19.8008 22.4688 19.5321 22.2002 19.2008 22.2002H14.4008C14.0694 22.2002 13.8008 22.4688 13.8008 22.8002V25.2002C13.8008 25.5315 14.0694 25.8002 14.4008 25.8002ZM15.0008 23.4002H18.6008V24.6002H15.0008V23.4002Z" fill="black"/>
<path d="M14.4008 30.0004H19.2008C19.5321 30.0004 19.8008 29.7317 19.8008 29.4004V27.0004C19.8008 26.669 19.5321 26.4004 19.2008 26.4004H14.4008C14.0694 26.4004 13.8008 26.669 13.8008 27.0004V29.4004C13.8008 29.7317 14.0694 30.0004 14.4008 30.0004ZM15.0008 27.6004H18.6008V28.8004H15.0008V27.6004Z" fill="black"/>
<path d="M14.4008 34.1996H19.2008C19.5321 34.1996 19.8008 33.931 19.8008 33.5996V31.1996C19.8008 30.8683 19.5321 30.5996 19.2008 30.5996H14.4008C14.0694 30.5996 13.8008 30.8683 13.8008 31.1996V33.5996C13.8008 33.931 14.0694 34.1996 14.4008 34.1996ZM15.0008 31.7996H18.6008V32.9996H15.0008V31.7996Z" fill="black"/>
</svg>
