<svg width="10" height="28" viewBox="0 0 10 28" fill="none" xmlns="http://www.w3.org/2000/svg">
<path d="M8.82585 9.00054H1.03342V8.0006H8.82585V9.00054ZM0 28L1.0065 10.0005H1.71276L1.09976 20.9601L0.987677 22.9601L0.706037 28H0ZM1.72439 22.5002L1.78043 21.5002H8.07861L8.13465 22.5002H1.72439ZM9.15301 28L8.86971 22.9617L8.75763 20.9617L8.1465 10.0005H8.85265L9.85938 28H9.15301ZM1.3876 5.5006H7.7632C7.9229 5.5006 8.06289 5.34973 8.10497 5.13211L8.99319 0.532173C9.04436 0.268431 9.19642 0.0681615 9.38647 0.0142248C9.57641 -0.0397119 9.77155 0.0622206 9.89072 0.277811C9.98896 0.453379 10.0235 0.683977 9.98397 0.900506L8.90326 7.00051H1.3876C1.09422 7.00051 0.856326 6.66485 0.856326 6.25055C0.856326 5.83626 1.09422 5.5006 1.3876 5.5006Z" fill="black"/>
</svg>
